<svg xmlns="http://www.w3.org/2000/svg"  viewBox="0 0 64 64" width="256px" height="256px" baseProfile="basic"><circle cx="32" cy="32" r="23" fill="#37d0ee"/><path fill="none" stroke="#fff" stroke-linecap="round" stroke-linejoin="round" stroke-miterlimit="10" stroke-width="3" d="M15.016,22.426c1.835-3.242,4.571-5.909,7.865-7.659"/><ellipse cx="32" cy="61" opacity=".3" rx="19" ry="3"/><path fill="#fff" d="M32,14c2.577,0,4.674-1.957,4.946-4.461C35.352,9.19,33.699,9,32,9 C19.297,9,9,19.297,9,32c0,1.699,0.19,3.352,0.539,4.946C12.044,36.674,14,34.577,14,32C14,22.075,22.075,14,32,14z" opacity=".3"/><path d="M54.461,27.054C51.956,27.326,50,29.423,50,32c0,9.925-8.075,18-18,18 c-2.577,0-4.674,1.957-4.946,4.461C28.648,54.81,30.301,55,32,55c12.703,0,23-10.297,23-23C55,30.301,54.81,28.648,54.461,27.054z" opacity=".15"/><path fill="#fff" d="M18.82,31.887c8.313-3.74,19.071-8.3,20.556-8.931c3.895-1.652,5.09-1.336,4.494,2.323	c-0.428,2.63-1.663,11.335-2.647,16.754c-0.584,3.214-1.895,3.594-3.955,2.204c-0.991-0.669-5.992-4.052-7.078-4.846	c-0.991-0.724-2.357-1.595-0.643-3.31c0.61-0.611,4.607-4.515,7.722-7.553c0.408-0.399-0.105-1.055-0.576-0.735	c-4.198,2.847-10.019,6.799-10.76,7.314c-1.119,0.777-2.194,1.134-4.123,0.567c-1.458-0.428-2.882-0.939-3.436-1.134	C16.241,33.791,16.747,32.82,18.82,31.887z"/></svg>